<?xml version='1.0' encoding='iso-8859-1'?>
<svg version="1.1" xmlns="http://www.w3.org/2000/svg" viewBox="0 0 8.631 8.631" xmlns:xlink="http://www.w3.org/1999/xlink" enable-background="new 0 0 8.631 8.631">
  <g>
    <g>
      <path fill="#020400" d="m4.797,2.392c0,0.662 0.537,1.199 1.2,1.199 0.663,0 1.2-0.537 1.2-1.199 0-0.663-0.537-1.2-1.2-1.2-0.663-0.001-1.2,0.536-1.2,1.2zm1.2-.721c0.398,0 0.72,0.322 0.72,0.721 0,0.397-0.322,0.72-0.72,0.72-0.398,0-0.72-0.322-0.72-0.72 0-0.399 0.322-0.721 0.72-0.721zm1.44,1.572c-0.088,0.149-0.199,0.283-0.329,0.399 0.581,1.168 0.388,2.623-0.585,3.596-1.218,1.219-3.194,1.219-4.412,0-1.219-1.219-1.219-3.193 0-4.412l2.206-2.147 .518,.504c0.118-0.115 0.255-0.207 0.403-0.284l-.921-.899-2.546,2.485c-1.406,1.406-1.406,3.686 0,5.092 1.406,1.405 3.685,1.405 5.091,0 1.176-1.176 1.365-2.959 0.575-4.334z"/>
    </g>
  </g>
</svg>
